<svg width="279" height="279" viewBox="0 0 279 279" fill="none" xmlns="http://www.w3.org/2000/svg">
<path d="M76.7134 254H69.94V220.18H75.8463L91.6431 242.211H91.8306V220.18H98.6041V254H92.7447L76.9244 231.852H76.7134V254ZM124.666 251.07C122.431 253.383 119.4 254.539 115.572 254.539C111.744 254.539 108.712 253.375 106.478 251.047C104.244 248.719 103.127 245.508 103.127 241.414C103.127 237.367 104.252 234.18 106.502 231.852C108.767 229.508 111.791 228.336 115.572 228.336C119.369 228.336 122.392 229.508 124.642 231.852C126.892 234.18 128.017 237.367 128.017 241.414C128.017 245.523 126.9 248.742 124.666 251.07ZM115.572 249.312C117.259 249.312 118.595 248.625 119.58 247.25C120.564 245.875 121.056 243.938 121.056 241.438C121.056 238.969 120.564 237.039 119.58 235.648C118.595 234.258 117.259 233.562 115.572 233.562C113.884 233.562 112.541 234.258 111.541 235.648C110.556 237.039 110.064 238.969 110.064 241.438C110.064 243.938 110.556 245.875 111.541 247.25C112.525 248.625 113.869 249.312 115.572 249.312ZM133.758 223.086H140.602V228.875H145.243V234.031H140.602V246.055C140.602 247.945 141.586 248.891 143.555 248.891C144.196 248.891 144.751 248.852 145.219 248.773V253.812C144.422 254 143.336 254.094 141.961 254.094C139.008 254.094 136.899 253.562 135.633 252.5C134.383 251.438 133.758 249.68 133.758 247.227V234.031H130.219V228.875H133.758V223.086ZM160.265 233.398C158.781 233.398 157.539 233.906 156.539 234.922C155.554 235.938 155 237.234 154.875 238.812H165.539C165.46 237.203 164.937 235.898 163.968 234.898C163.015 233.898 161.781 233.398 160.265 233.398ZM165.632 246.312H171.914C171.539 248.781 170.304 250.773 168.21 252.289C166.132 253.789 163.546 254.539 160.453 254.539C156.593 254.539 153.562 253.383 151.359 251.07C149.171 248.758 148.078 245.586 148.078 241.555C148.078 237.539 149.171 234.336 151.359 231.945C153.546 229.539 156.492 228.336 160.195 228.336C163.835 228.336 166.734 229.477 168.89 231.758C171.046 234.039 172.125 237.094 172.125 240.922V243.008H154.804V243.43C154.804 245.227 155.328 246.688 156.375 247.812C157.437 248.922 158.835 249.477 160.57 249.477C161.82 249.477 162.898 249.195 163.804 248.633C164.71 248.055 165.32 247.281 165.632 246.312ZM176.202 254V220.18H183.045V254H176.202ZM191.248 263.305C189.748 263.305 188.888 263.281 188.669 263.234V257.961C188.81 257.992 189.38 258.008 190.38 258.008C191.646 258.008 192.607 257.789 193.263 257.352C193.919 256.93 194.365 256.219 194.599 255.219C194.599 255.203 194.638 255.008 194.716 254.633C194.794 254.258 194.826 254.055 194.81 254.023L186.068 228.875H193.591L198.935 248.516H199.052L204.396 228.875H211.615L202.966 254.562C201.888 257.781 200.466 260.039 198.701 261.336C196.951 262.648 194.466 263.305 191.248 263.305Z" fill="black"/>
<path fill-rule="evenodd" clip-rule="evenodd" d="M100.706 142.757C104.41 138.23 109.396 135.058 115.175 136.077C118.204 136.612 120.514 138.329 121.725 141.02C122.853 143.526 122.877 146.54 122.286 149.601C121.099 155.747 117.17 163.432 111.025 171.368C107.632 175.751 103.053 179.678 98.1646 183.069C98.8434 185.198 99.7262 186.882 100.732 188.052C101.9 189.41 103.176 190.032 104.653 190.032C106.531 190.032 108.724 189.412 111.178 188.228C113.612 187.054 116.129 185.409 118.613 183.562C121.09 181.72 123.463 179.728 125.629 177.882C125.939 177.617 126.247 177.354 126.552 177.093C128.326 175.576 129.99 174.154 131.353 173.132C131.594 172.951 131.837 172.768 132.082 172.584C133.319 171.653 134.594 170.693 135.778 169.887C137.14 168.961 138.707 168.006 140.216 167.581C140.994 167.362 142.015 167.208 143.094 167.483C144.283 167.787 145.228 168.532 145.844 169.547C146.404 170.471 146.634 171.518 146.723 172.491C146.814 173.489 146.773 174.619 146.635 175.863C146.397 178.004 146.28 180.105 146.333 181.945C146.388 183.836 146.616 185.238 146.941 186.101C146.984 186.215 147.023 186.308 147.058 186.383C147.354 186.251 147.888 185.95 148.701 185.254C151.166 183.141 153.245 180.472 155.156 178.019C155.747 177.26 156.323 176.521 156.889 175.825C157.457 175.127 158.044 174.443 158.623 173.874C159.156 173.35 159.91 172.691 160.834 172.311C161.942 171.857 163.498 171.759 164.842 172.85C165.874 173.688 166.316 174.894 166.547 175.742C167.229 178.241 167.244 180.665 167.156 182.632C167.13 183.226 167.089 183.861 167.052 184.422C167.032 184.741 167.013 185.036 166.998 185.287C166.963 185.916 166.95 186.394 166.964 186.767C167.086 186.751 167.228 186.729 167.393 186.698C168.145 186.554 169.184 186.254 170.6 185.723C178.929 182.599 182.515 174.784 183.216 171.42C183.554 169.798 185.143 168.757 186.765 169.095C188.387 169.433 189.428 171.022 189.09 172.644C188.124 177.28 183.577 187.264 172.707 191.341C171.122 191.935 169.732 192.359 168.519 192.591C167.336 192.817 166.109 192.903 164.954 192.625C163.678 192.319 162.608 191.592 161.903 190.479C161.273 189.483 161.076 188.396 161.003 187.554C160.928 186.691 160.962 185.775 161.008 184.951C161.029 184.583 161.051 184.244 161.073 183.911C161.105 183.412 161.137 182.924 161.162 182.366C161.197 181.589 161.207 180.826 161.17 180.076C160.851 180.478 160.506 180.923 160.136 181.398C158.194 183.897 155.583 187.257 152.606 189.81C150.697 191.445 148.444 192.763 146.043 192.442C143.347 192.081 141.972 189.935 141.324 188.211C140.657 186.435 140.397 184.262 140.336 182.118C140.273 179.924 140.412 177.532 140.672 175.2C140.731 174.662 140.761 174.212 140.769 173.839C140.332 174.08 139.796 174.411 139.153 174.848C138.099 175.565 136.964 176.419 135.726 177.351C135.473 177.541 135.215 177.735 134.953 177.932C133.757 178.829 132.27 180.1 130.477 181.631C130.168 181.896 129.849 182.168 129.521 182.448C127.343 184.304 124.842 186.406 122.194 188.376C119.552 190.342 116.694 192.229 113.785 193.632C110.895 195.026 107.775 196.032 104.653 196.032C101.13 196.032 98.2809 194.403 96.1834 191.965C94.8376 190.4 93.7863 188.494 92.983 186.414C92.1223 186.932 91.2616 187.434 90.4052 187.918C82.8029 192.218 75.2748 195.32 70.6018 196.878C69.03 197.402 67.3311 196.552 66.8071 194.981C66.2832 193.409 67.1326 191.71 68.7045 191.186C73.0315 189.743 80.2034 186.795 87.4511 182.696C88.7657 181.952 90.0739 181.175 91.3615 180.368C90.3029 174.187 90.6288 167.029 92.2492 160.779C94.0693 153.758 96.9734 147.32 100.706 142.757ZM96.9147 176.577C100.57 173.845 103.83 170.861 106.281 167.695C112.136 160.132 115.458 153.316 116.395 148.463C116.866 146.023 116.672 144.412 116.253 143.482C115.917 142.735 115.353 142.202 114.132 141.986C111.411 141.506 108.396 142.834 105.35 146.557C102.333 150.244 99.737 155.805 98.0571 162.285C96.8741 166.848 96.4948 171.96 96.9147 176.577ZM141.951 173.332C141.951 173.332 141.947 173.333 141.939 173.334C141.947 173.332 141.951 173.332 141.951 173.332ZM160.667 177.048C160.667 177.048 160.671 177.056 160.679 177.074C160.67 177.058 160.666 177.049 160.667 177.048ZM147.231 186.669C147.23 186.671 147.219 186.661 147.199 186.634C147.221 186.653 147.231 186.667 147.231 186.669Z" fill="#0066FF"/>
<path fill-rule="evenodd" clip-rule="evenodd" d="M253.891 31.9008L255.135 28.4834C256.646 24.3315 254.505 19.7408 250.353 18.2297L235.318 12.7573C231.166 11.2462 226.576 13.3869 225.064 17.5387L178.962 144.203C178.593 145.217 178.505 146.311 178.705 147.371L183.285 171.568C183.708 173.804 186.37 174.773 188.132 173.332L207.193 157.74C208.028 157.057 208.664 156.162 209.033 155.148L250.668 40.7558C250.936 40.5128 251.165 40.2168 251.336 39.8735C251.613 39.3195 252.163 38.6299 252.985 38.2325C253.717 37.8782 254.998 37.5906 257.144 38.3572C258.233 38.7462 258.775 39.2306 259.073 39.6333C259.381 40.0506 259.576 40.5854 259.644 41.2874C259.792 42.8127 259.306 44.5868 258.807 46.0832C258.022 48.4386 251.842 65.6512 248.83 74.0157C248.269 75.5746 249.078 77.2933 250.637 77.8546C252.196 78.4158 253.915 77.607 254.476 76.048C257.465 67.7459 263.684 50.4252 264.499 47.9806C265 46.477 265.899 43.6209 265.616 40.7062C265.468 39.1882 264.993 37.5505 263.9 36.0703C262.797 34.5756 261.209 33.4377 259.162 32.7068C257.25 32.0239 255.486 31.7842 253.891 31.9008ZM233.266 18.3955L248.301 23.8678C249.339 24.2456 249.874 25.3933 249.496 26.4312L247.698 31.3729L228.904 24.5325L230.703 19.5908C231.08 18.5529 232.228 18.0177 233.266 18.3955ZM188.241 165.491L185.349 148.282L202.153 154.398L188.241 165.491ZM226.776 30.3802L245.57 37.2206L204.883 149.006L186.089 142.166L226.776 30.3802Z" fill="black"/>
</svg>
