<svg width="57" height="56" viewBox="0 0 57 56" fill="none" xmlns="http://www.w3.org/2000/svg">
<g opacity="0.4">
<path d="M19 38.0261L27.826 37.996L47.09 18.916C47.846 18.1601 48.262 17.156 48.262 16.088C48.262 15.02 47.846 14.016 47.09 13.26L43.918 10.088C42.406 8.57605 39.768 8.58405 38.268 10.082L19 29.166V38.0261ZM41.09 12.916L44.268 16.082L41.074 19.246L37.902 16.076L41.09 12.916ZM23 30.834L35.06 18.888L38.232 22.06L26.174 34.0021L23 34.012V30.834Z" fill="#3C3C43"/>
<path d="M15 46H43C45.206 46 47 44.206 47 42V24.664L43 28.664V42H21.316C21.264 42 21.21 42.02 21.158 42.02C21.092 42.02 21.026 42.002 20.958 42H15V14H28.694L32.694 10H15C12.794 10 11 11.794 11 14V42C11 44.206 12.794 46 15 46Z" fill="#3C3C43"/>
</g>
</svg>
