<svg width="20" height="18" viewBox="0 0 20 18" fill="none" xmlns="http://www.w3.org/2000/svg">
<path d="M9.99994 2.2121C9.00114 1.2937 7.6938 0.783978 6.33694 0.783936C5.61877 0.784683 4.90783 0.927448 4.24505 1.20401C3.58227 1.48058 2.98072 1.88549 2.47502 2.39544C0.318108 4.56152 0.319025 7.94952 2.47686 10.1064L9.19786 16.8274C9.35369 17.1015 9.65436 17.2784 9.99994 17.2784C10.1418 17.2771 10.2814 17.2424 10.4075 17.1773C10.5336 17.1122 10.6427 17.0184 10.7259 16.9035L17.523 10.1064C19.6809 7.9486 19.6809 4.56152 17.5212 2.39177C17.0158 1.88276 16.4147 1.47867 15.7526 1.20275C15.0904 0.926816 14.3803 0.784485 13.6629 0.783936C12.3061 0.784157 10.9988 1.29385 9.99994 2.2121ZM16.225 3.68794C17.6578 5.12802 17.6587 7.37752 16.2269 8.81027L9.99994 15.0372L3.77302 8.81027C2.34119 7.37752 2.34211 5.12802 3.77119 3.6916C4.46786 2.9986 5.37902 2.61727 6.33694 2.61727C7.29486 2.61727 8.20236 2.9986 8.89353 3.68977L9.35186 4.1481C9.43691 4.2333 9.53793 4.3009 9.64914 4.34701C9.76034 4.39313 9.87955 4.41687 9.99994 4.41687C10.1203 4.41687 10.2395 4.39313 10.3507 4.34701C10.4619 4.3009 10.563 4.2333 10.648 4.1481L11.1064 3.68977C12.4924 2.30652 14.8409 2.31019 16.225 3.68794Z" fill="#444444"/>
</svg>
