<svg width="200" height="186" viewBox="0 0 200 186" fill="none" xmlns="http://www.w3.org/2000/svg">
<path fill-rule="evenodd" clip-rule="evenodd" d="M34.7063 130.757C38.4103 126.23 43.3957 123.058 49.1745 124.077C52.2036 124.612 54.5142 126.329 55.7249 129.02C56.853 131.526 56.8774 134.54 56.2862 137.601C55.0988 143.747 51.17 151.432 45.0253 159.368C41.6324 163.751 37.0529 167.678 32.1646 171.069C32.8434 173.198 33.7262 174.882 34.7323 176.052C35.9004 177.41 37.1765 178.032 38.6532 178.032C40.5309 178.032 42.7238 177.412 45.1777 176.228C47.612 175.054 50.1295 173.409 52.6126 171.562C55.0896 169.72 57.463 167.728 59.6287 165.882C59.939 165.617 60.247 165.354 60.5516 165.093C62.3264 163.576 63.9898 162.154 65.3532 161.132C65.5939 160.951 65.8372 160.768 66.0819 160.584C67.319 159.653 68.5944 158.693 69.7783 157.887C71.1401 156.961 72.707 156.006 74.2159 155.581C74.9945 155.362 76.0152 155.208 77.0941 155.483C78.2827 155.787 79.2285 156.532 79.8438 157.547C80.4037 158.471 80.6342 159.518 80.7228 160.491C80.8137 161.489 80.773 162.619 80.6348 163.863C80.397 166.004 80.2805 168.105 80.3334 169.945C80.3877 171.836 80.6165 173.238 80.9406 174.101C80.9835 174.215 81.023 174.308 81.058 174.383C81.3544 174.251 81.8882 173.95 82.7008 173.254C85.1655 171.141 87.2446 168.472 89.1558 166.019C89.7475 165.26 90.323 164.521 90.889 163.825C91.4574 163.127 92.0439 162.443 92.6233 161.874C93.1557 161.35 93.9096 160.691 94.8342 160.311C95.9415 159.857 97.498 159.759 98.8419 160.85C99.8744 161.688 100.316 162.894 100.547 163.742C101.229 166.241 101.244 168.665 101.156 170.632C101.13 171.226 101.089 171.861 101.052 172.422C101.032 172.741 101.013 173.036 100.998 173.287C100.963 173.916 100.95 174.394 100.964 174.767C101.086 174.751 101.228 174.729 101.393 174.698C102.145 174.554 103.184 174.254 104.6 173.723C112.929 170.599 116.515 162.784 117.216 159.42C117.554 157.798 119.143 156.757 120.765 157.095C122.387 157.433 123.428 159.022 123.09 160.644C122.124 165.28 117.577 175.264 106.707 179.341C105.122 179.935 103.732 180.359 102.519 180.591C101.336 180.817 100.109 180.903 98.9542 180.625C97.6778 180.319 96.6075 179.592 95.9029 178.479C95.273 177.483 95.0763 176.396 95.0031 175.554C94.9282 174.691 94.9617 173.775 95.0079 172.951C95.0285 172.583 95.0508 172.244 95.0726 171.911C95.1054 171.412 95.1373 170.924 95.1621 170.366C95.1966 169.589 95.2071 168.826 95.1703 168.076C94.8512 168.478 94.5058 168.923 94.1362 169.398C92.1941 171.897 89.5832 175.257 86.6055 177.81C84.6972 179.445 82.4438 180.763 80.0428 180.442C77.347 180.081 75.9721 177.935 75.3242 176.211C74.6568 174.435 74.3975 172.262 74.3358 170.118C74.2728 167.924 74.4124 165.532 74.6715 163.2C74.7313 162.662 74.7609 162.212 74.7691 161.839C74.3316 162.08 73.7958 162.411 73.153 162.848C72.0993 163.565 70.9639 164.419 69.7262 165.351C69.4729 165.541 69.2153 165.735 68.9532 165.932C67.757 166.829 66.2697 168.1 64.4772 169.631C64.1677 169.896 63.8491 170.168 63.5213 170.448C61.3433 172.304 58.8417 174.406 56.1937 176.376C53.5519 178.342 50.6943 180.229 47.7849 181.632C44.895 183.026 41.7754 184.032 38.6532 184.032C35.1298 184.032 32.2809 182.403 30.1834 179.965C28.8376 178.4 27.7863 176.494 26.983 174.414C26.1223 174.932 25.2616 175.434 24.4052 175.918C16.8029 180.218 9.27483 183.32 4.60184 184.878C3.03001 185.402 1.33105 184.552 0.807108 182.981C0.283164 181.409 1.13264 179.71 2.70447 179.186C7.03148 177.743 14.2034 174.795 21.4511 170.696C22.7657 169.952 24.0739 169.175 25.3615 168.368C24.3029 162.187 24.6288 155.029 26.2492 148.779C28.0693 141.758 30.9734 135.32 34.7063 130.757ZM30.9147 164.577C34.5698 161.845 37.83 158.861 40.281 155.695C46.1364 148.132 49.4575 141.316 50.3951 136.463C50.8664 134.023 50.6721 132.412 50.2533 131.482C49.9171 130.735 49.3527 130.202 48.1318 129.986C45.4106 129.506 42.3961 130.834 39.35 134.557C36.3329 138.244 33.737 143.805 32.0571 150.285C30.8741 154.848 30.4948 159.96 30.9147 164.577ZM75.9507 161.332C75.9506 161.332 75.9468 161.333 75.9394 161.334C75.9471 161.332 75.9508 161.332 75.9507 161.332ZM94.6667 165.048C94.6669 165.048 94.6711 165.056 94.6787 165.074C94.6702 165.058 94.6665 165.049 94.6667 165.048ZM81.2306 174.669C81.2301 174.671 81.2188 174.661 81.1986 174.634C81.221 174.653 81.2312 174.667 81.2306 174.669Z" fill="#0066FF"/>
<path fill-rule="evenodd" clip-rule="evenodd" d="M187.891 19.9008L189.135 16.4834C190.646 12.3315 188.505 7.7408 184.353 6.22966L169.318 0.757341C165.166 -0.753799 160.576 1.3869 159.064 5.53872L112.962 132.203C112.593 133.217 112.505 134.311 112.705 135.371L117.285 159.568C117.708 161.804 120.37 162.773 122.132 161.332L141.193 145.74C142.028 145.057 142.664 144.162 143.033 143.148L184.668 28.7558C184.936 28.5128 185.165 28.2168 185.336 27.8735C185.613 27.3195 186.163 26.6299 186.985 26.2325C187.717 25.8782 188.998 25.5906 191.144 26.3572C192.233 26.7462 192.775 27.2306 193.073 27.6333C193.381 28.0506 193.576 28.5854 193.644 29.2874C193.792 30.8127 193.306 32.5868 192.807 34.0832C192.022 36.4386 185.842 53.6512 182.83 62.0157C182.269 63.5746 183.078 65.2933 184.637 65.8546C186.196 66.4158 187.915 65.607 188.476 64.048C191.465 55.7459 197.684 38.4252 198.499 35.9806C199 34.477 199.899 31.6209 199.616 28.7062C199.468 27.1882 198.993 25.5505 197.9 24.0703C196.797 22.5756 195.209 21.4377 193.162 20.7068C191.25 20.0239 189.486 19.7842 187.891 19.9008ZM167.266 6.3955L182.301 11.8678C183.339 12.2456 183.874 13.3933 183.496 14.4312L181.698 19.3729L162.904 12.5325L164.703 7.59084C165.08 6.55289 166.228 6.01771 167.266 6.3955ZM122.241 153.491L119.349 136.282L136.153 142.398L122.241 153.491ZM160.776 18.3802L179.57 25.2206L138.883 137.006L120.089 130.166L160.776 18.3802Z" fill="black"/>
</svg>
