<svg width="16" height="14" viewBox="0 0 16 14" fill="none" xmlns="http://www.w3.org/2000/svg">
<path fill-rule="evenodd" clip-rule="evenodd" d="M0.666748 2.33337C0.666748 1.2288 1.56218 0.333374 2.66675 0.333374H5.64329C6.0891 0.333374 6.5054 0.556176 6.75269 0.927103L7.6902 2.33337H13.3334C14.438 2.33337 15.3334 3.22881 15.3334 4.33337V11.6667C15.3334 12.7713 14.438 13.6667 13.3334 13.6667H2.66675C1.56218 13.6667 0.666748 12.7713 0.666748 11.6667V2.33337ZM2.66675 1.66671C2.29856 1.66671 2.00008 1.96518 2.00008 2.33337V11.6667C2.00008 12.0349 2.29855 12.3334 2.66675 12.3334H13.3334C13.7016 12.3334 14.0001 12.0349 14.0001 11.6667V4.33337C14.0001 3.96518 13.7016 3.66671 13.3334 3.66671H7.33342C7.11051 3.66671 6.90236 3.55531 6.77871 3.36984L5.6433 1.66671L2.66675 1.66671Z" fill="#3C3C43"/>
</svg>
